<svg width="84" height="46" viewBox="0 0 84 46" fill="none" xmlns="http://www.w3.org/2000/svg">
<path d="M78.8517 27.4305C74.0403 34.055 67.6251 36.7745 59.7455 36.0772C54.2368 35.589 49.1465 33.7063 44.335 31.0565C39.5933 28.4765 34.9911 25.6175 30.3889 22.8283C27.4602 21.085 24.4618 19.3418 21.045 18.7142C15.8849 17.6682 11.4221 18.7142 8.00532 23.0375C6.40151 25.0597 5.77393 27.4305 5.63447 30.0803C5.35555 29.8014 5.14636 29.5922 5.0069 29.4527C1.59009 25.1294 -0.362371 20.318 0.0560135 14.7395C0.68359 6.79024 7.09882 0.51447 15.0481 0.0263544C19.232 -0.182838 23.0672 0.863123 26.6932 2.81558C30.5283 4.83778 33.8754 7.48754 37.083 10.3465C41.9642 14.7395 46.8453 19.1326 52.2843 22.8283C56.0498 25.4083 60.0245 27.6397 64.6267 28.6857C69.2289 29.7317 73.7614 29.383 78.2242 27.7095C78.3636 27.6397 78.5031 27.57 78.8517 27.4305Z" fill="white"/>
<path d="M50.7504 15.0881C55.3526 14.5303 59.1878 12.4384 63.0927 10.4162C66.0214 8.95181 68.8804 7.48747 71.8788 6.09285C73.6918 5.25608 75.5745 4.76797 77.5967 4.90743C81.2227 5.18635 83.5935 7.5572 83.5935 11.2529C83.5935 16.2038 81.2227 19.9693 77.0389 22.4796C72.4366 25.2688 67.6252 25.2688 62.7441 23.1769C58.8391 21.5033 55.4921 18.9233 52.2147 16.2735C51.7963 15.9946 51.3082 15.5762 50.7504 15.0881Z" fill="white"/>
<path d="M61.7678 41.0978C57.3051 43.2594 52.6331 44.654 47.6822 45.2816C37.0134 46.6762 26.9722 44.7935 17.4888 39.6334C15.5364 38.5177 13.7234 37.2626 12.3287 35.4496C10.6552 33.2182 9.74871 30.7776 10.5855 27.9884C11.6314 24.4321 15.118 22.5494 19.2321 23.177C21.7424 23.5954 23.9738 24.5716 26.1354 25.8267C30.6679 28.5462 35.1307 31.3355 39.7329 33.9852C44.6141 36.7745 49.7044 39.1453 55.3526 40.1913C57.4445 40.6097 59.6062 40.8189 61.7678 41.0978Z" fill="white"/>
</svg>
