<?xml version="1.0" encoding="UTF-8" standalone="no"?><!DOCTYPE svg PUBLIC "-//W3C//DTD SVG 1.1//EN" "http://www.w3.org/Graphics/SVG/1.1/DTD/svg11.dtd"><svg width="100%" height="100%" viewBox="0 0 32 32" version="1.1" xmlns="http://www.w3.org/2000/svg" xmlns:xlink="http://www.w3.org/1999/xlink" xml:space="preserve" xmlns:serif="http://www.serif.com/" style="fill-rule:evenodd;clip-rule:evenodd;stroke-linejoin:round;stroke-miterlimit:2;"><circle cx="16" cy="16" r="16" style="fill:#86bee6;"/><g><path d="M18.642,14.357c1.358,-0.165 2.489,-0.782 3.641,-1.379c0.864,-0.432 1.708,-0.864 2.593,-1.275c0.535,-0.247 1.09,-0.391 1.687,-0.35c1.07,0.082 1.769,0.782 1.769,1.872c0,1.461 -0.699,2.572 -1.934,3.312c-1.358,0.823 -2.777,0.823 -4.218,0.206c-1.152,-0.494 -2.139,-1.255 -3.106,-2.037c-0.124,-0.082 -0.268,-0.205 -0.432,-0.349Z" style="fill:#fff;fill-rule:nonzero;"/><path d="M21.296,20.549c2.325,0.206 4.217,-0.596 5.637,-2.551c-0.103,0.041 -0.144,0.062 -0.185,0.082c-1.317,0.494 -2.654,0.597 -4.012,0.288c-1.358,-0.308 -2.531,-0.967 -3.642,-1.728c-1.604,-1.09 -3.045,-2.386 -4.485,-3.682l0,-0.001c-0.946,-0.843 -1.934,-1.625 -3.065,-2.221c-1.07,-0.577 -2.202,-0.885 -3.436,-0.823c-2.346,0.144 -4.238,1.995 -4.424,4.341c-0.123,1.646 0.453,3.065 1.461,4.341l0.185,0.185c0.042,-0.782 0.227,-1.481 0.7,-2.078c1.008,-1.276 2.325,-1.584 3.847,-1.276c1.008,0.186 1.893,0.7 2.757,1.214c0.219,0.133 0.437,0.266 0.656,0.399c1.14,0.693 2.285,1.39 3.459,2.029c1.42,0.782 2.921,1.337 4.547,1.481Zm-3.56,2.716c1.461,-0.185 2.84,-0.597 4.156,-1.234c-0.154,-0.02 -0.309,-0.039 -0.464,-0.058c-0.482,-0.058 -0.961,-0.116 -1.428,-0.21c-1.667,-0.308 -3.169,-1.008 -4.609,-1.831c-0.905,-0.521 -1.792,-1.061 -2.679,-1.6c-0.444,-0.27 -0.887,-0.54 -1.333,-0.807c-0.638,-0.37 -1.296,-0.658 -2.037,-0.782c-1.214,-0.185 -2.242,0.37 -2.551,1.42c-0.247,0.823 0.021,1.543 0.514,2.201c0.412,0.535 0.947,0.905 1.523,1.235c2.798,1.522 5.761,2.078 8.908,1.666Z" style="fill:#fff;"/></g></svg>